<?xml version="1.0" encoding="UTF-8"?>
<svg version="1.1" xmlns="http://www.w3.org/2000/svg" width="467" height="320">
<path d="M0 0 C154.11 0 308.22 0 467 0 C467 105.6 467 211.2 467 320 C312.89 320 158.78 320 0 320 C0 214.4 0 108.8 0 0 Z " fill="#FEFEFE" transform="translate(0,0)"/>
<path d="M0 0 C154.11 0 308.22 0 467 0 C467 105.6 467 211.2 467 320 C312.89 320 158.78 320 0 320 C0 214.4 0 108.8 0 0 Z M194.56436157 19.63282776 C185.23283095 20.53303971 175.8980733 21.35167845 166.55296898 22.09932709 C164.52274423 22.26177422 162.49260288 22.4252302 160.46247864 22.58892822 C155.11056235 23.01989826 149.75866655 23.4503762 144.40548706 23.86541748 C111.42676744 26.4253504 81.18714853 30.79900826 58 57 C45.55306874 72.4693649 37.91956089 91.66176912 34 111 C33.79503906 111.99128906 33.59007812 112.98257813 33.37890625 114.00390625 C30.41509881 130.98958888 31.15988638 149.03843005 34 166 C34.11827148 166.73992187 34.23654297 167.47984375 34.35839844 168.2421875 C39.11043289 196.97204466 52.68280612 224.87586848 76 243 C84.46687308 249.02745099 93.07861784 252.97563815 103 256 C103.76183594 256.23460937 104.52367188 256.46921875 105.30859375 256.7109375 C113.43829964 258.96828038 121.98670299 259.15531387 130.37255859 259.16577148 C131.69599211 259.1717356 131.69599211 259.1717356 133.04616165 259.17782021 C135.9552956 259.18707989 138.86429143 259.18659638 141.7734375 259.18359375 C142.79158916 259.1835327 143.80974083 259.18347164 144.85874557 259.18340874 C169.33366346 259.16108281 193.76359654 258.22815077 218.21362305 257.20404053 C223.96894403 256.96524805 229.72473275 256.73829211 235.48046875 256.50976562 C251.38586832 255.87426081 267.29053151 255.23668501 283.18969727 254.45898438 C290.49678374 254.10340037 297.79831807 253.81976032 305.11328125 253.68359375 C306.6002375 253.6524221 306.6002375 253.6524221 308.11723328 253.62062073 C311.18227545 253.55695201 314.24737677 253.49712328 317.3125 253.4375 C319.43294802 253.39413938 321.55339079 253.35052074 323.67382812 253.30664062 C328.78249668 253.20146883 333.89122248 253.09973196 339 253 C339.60644531 254.81054688 339.60644531 254.81054688 340 257 C338.67655716 259.35548542 337.36407398 261.3584739 335.75 263.5 C335.29689453 264.11584961 334.84378906 264.73169922 334.37695312 265.36621094 C329.66776882 271.64835323 324.44623161 277.35701146 319 283 C318.21109375 283.85207031 317.4221875 284.70414062 316.609375 285.58203125 C308.57618456 294.0275212 299.09681805 301.17269358 289 307 C292.52843388 308.17614463 293.48735055 307.76438946 296.9453125 306.62890625 C297.93136475 306.30623779 298.91741699 305.98356934 299.93334961 305.65112305 C300.98659424 305.29187744 302.03983887 304.93263184 303.125 304.5625 C304.20724854 304.19487549 305.28949707 303.82725098 306.40454102 303.44848633 C331.64629438 294.68541745 363.04266864 278.68537227 376.1875 254 C377.96155458 251.35141147 378.97978744 251.00543024 382.140625 250.15625 C384.06627847 249.823421 385.99225338 249.49145678 387.9230957 249.19018555 C402.41982435 246.78604681 413.50033378 238.1674061 422.0625 226.5625 C430.63297384 214.39279037 436.4975745 200.43392988 440 186 C440.24556641 184.99332275 440.24556641 184.99332275 440.49609375 183.96630859 C449.12957015 145.9807962 444.73086655 94.74117771 425.1953125 60.87109375 C412.11075214 40.29838137 391.71775539 25.91878397 368 20 C360.05969358 18.32121736 352.04183449 17.07671898 344 16 C343.36123932 15.91172943 342.72247864 15.82345886 342.06436157 15.73251343 C329.26003239 13.99653621 316.59787444 13.64145204 303.6875 13.6875 C302.1208812 13.68973572 302.1208812 13.68973572 300.52261353 13.6920166 C265.11221051 13.78123757 229.79734964 16.22966666 194.56436157 19.63282776 Z " fill="#FDFDFD" transform="translate(0,0)"/>
<path d="M0 0 C0.7429834 0.22026855 1.4859668 0.44053711 2.25146484 0.66748047 C18.92403433 5.69664327 32.83712203 13.50937981 45 26 C45.73734375 26.73992188 46.4746875 27.47984375 47.234375 28.2421875 C64.99419885 47.03455925 71.58881327 73.06190672 75 98 C75.18433594 99.12535156 75.36867188 100.25070313 75.55859375 101.41015625 C78.45185586 121.34373451 78.47463048 143.15067417 75 163 C74.88172852 163.73508789 74.76345703 164.47017578 74.64160156 165.22753906 C71.23788335 186.00494362 62.93893034 206.06588944 49 222 C48.44570313 222.63808594 47.89140625 223.27617187 47.3203125 223.93359375 C38.80748468 233.07775569 26.21957249 240.27440909 13.75 241.6875 C8.30762644 242.65044761 6.49580908 245.54136438 3.375 249.8828125 C-4.92883933 260.78160162 -15.33054952 269.89508428 -27 277 C-27.5986084 277.36786621 -28.1972168 277.73573242 -28.81396484 278.11474609 C-51.84298717 292.12541002 -82.54303562 305.19578069 -110 304 C-110.33 302.35 -110.66 300.7 -111 299 C-107.36337746 295.92212936 -103.30763424 294.23228404 -99 292.3125 C-76.46234586 281.96624591 -57.63479956 264.83562149 -43 245 C-68.67104415 245.3502532 -94.29562039 246.15330644 -119.9375 247.4375 C-121.27419761 247.50398357 -122.61089806 247.57041 -123.94760132 247.63677979 C-135.1192465 248.19201285 -146.29043869 248.75614021 -157.4609375 249.33398438 C-179.54746227 250.46868176 -201.60674726 251.20114169 -223.72463989 251.29653931 C-226.1184422 251.30700588 -228.51223033 251.32180794 -230.90597534 251.34140015 C-261.35643582 251.55901736 -288.6735854 246.34163628 -311.37011719 224.64160156 C-327.08128182 208.81747469 -336.09127619 188.44021358 -342.25 167.3125 C-342.49645264 166.46985596 -342.74290527 165.62721191 -342.99682617 164.7590332 C-346.45812436 152.40579995 -347.34766267 140.59240411 -347.31567383 127.82885742 C-347.31251807 125.20253774 -347.33603625 122.57735289 -347.36132812 119.95117188 C-347.40048164 109.54381329 -346.48291664 100.14625873 -344 90 C-343.65352825 88.37269745 -343.30827554 86.74513433 -342.96484375 85.1171875 C-339.07130049 68.48027021 -332.1260544 52.11519183 -321 39 C-320.29230469 38.1440625 -319.58460938 37.288125 -318.85546875 36.40625 C-298.77068664 13.05021616 -271.28238695 5.65080745 -241.76953125 3.18359375 C-240.175149 3.0414553 -238.58085655 2.89830643 -236.98664856 2.75422668 C-232.79202293 2.37820996 -228.59626326 2.01691226 -224.40003204 1.65931702 C-220.91031354 1.36015978 -217.42136594 1.0524934 -213.93239212 0.74479103 C-203.29022821 -0.19362372 -192.64576725 -1.10349058 -182 -2 C-180.83309631 -2.09859314 -179.66619263 -2.19718628 -178.46392822 -2.29876709 C-168.1931074 -3.1638804 -157.92000318 -3.96744996 -147.63720703 -4.67626953 C-144.26498317 -4.90920021 -140.89386483 -5.15461093 -137.52294922 -5.40576172 C-40.87793973 -12.58264301 -40.87793973 -12.58264301 0 0 Z M-178.43563843 4.63282776 C-187.76716905 5.53303971 -197.1019267 6.35167845 -206.44703102 7.09932709 C-208.47725577 7.26177422 -210.50739712 7.4252302 -212.53752136 7.58892822 C-217.88943765 8.01989826 -223.24133345 8.4503762 -228.59451294 8.86541748 C-261.57323256 11.4253504 -291.81285147 15.79900826 -315 42 C-327.44693126 57.4693649 -335.08043911 76.66176912 -339 96 C-339.20496094 96.99128906 -339.40992188 97.98257813 -339.62109375 99.00390625 C-342.58490119 115.98958888 -341.84011362 134.03843005 -339 151 C-338.88172852 151.73992187 -338.76345703 152.47984375 -338.64160156 153.2421875 C-333.88956711 181.97204466 -320.31719388 209.87586848 -297 228 C-288.53312692 234.02745099 -279.92138216 237.97563815 -270 241 C-269.23816406 241.23460937 -268.47632813 241.46921875 -267.69140625 241.7109375 C-259.56170036 243.96828038 -251.01329701 244.15531387 -242.62744141 244.16577148 C-241.30400789 244.1717356 -241.30400789 244.1717356 -239.95383835 244.17782021 C-237.0447044 244.18707989 -234.13570857 244.18659638 -231.2265625 244.18359375 C-230.20841084 244.1835327 -229.19025917 244.18347164 -228.14125443 244.18340874 C-203.66633654 244.16108281 -179.23640346 243.22815077 -154.78637695 242.20404053 C-149.03105597 241.96524805 -143.27526725 241.73829211 -137.51953125 241.50976562 C-121.61413168 240.87426081 -105.70946849 240.23668501 -89.81030273 239.45898438 C-82.50321626 239.10340037 -75.20168193 238.81976032 -67.88671875 238.68359375 C-66.3997625 238.6524221 -66.3997625 238.6524221 -64.88276672 238.62062073 C-61.81772455 238.55695201 -58.75262323 238.49712328 -55.6875 238.4375 C-53.56705198 238.39413938 -51.44660921 238.35052074 -49.32617188 238.30664062 C-44.21750332 238.20146883 -39.10877752 238.09973196 -34 238 C-33.39355469 239.81054688 -33.39355469 239.81054688 -33 242 C-34.32344284 244.35548542 -35.63592602 246.3584739 -37.25 248.5 C-37.70310547 249.11584961 -38.15621094 249.73169922 -38.62304688 250.36621094 C-43.33223118 256.64835323 -48.55376839 262.35701146 -54 268 C-54.78890625 268.85207031 -55.5778125 269.70414062 -56.390625 270.58203125 C-64.42381544 279.0275212 -73.90318195 286.17269358 -84 292 C-80.47156612 293.17614463 -79.51264945 292.76438946 -76.0546875 291.62890625 C-75.06863525 291.30623779 -74.08258301 290.98356934 -73.06665039 290.65112305 C-72.01340576 290.29187744 -70.96016113 289.93263184 -69.875 289.5625 C-68.79275146 289.19487549 -67.71050293 288.82725098 -66.59545898 288.44848633 C-41.35370562 279.68541745 -9.95733136 263.68537227 3.1875 239 C4.96155458 236.35141147 5.97978744 236.00543024 9.140625 235.15625 C11.06627847 234.823421 12.99225338 234.49145678 14.9230957 234.19018555 C29.41982435 231.78604681 40.50033378 223.1674061 49.0625 211.5625 C57.63297384 199.39279037 63.4975745 185.43392988 67 171 C67.24556641 169.99332275 67.24556641 169.99332275 67.49609375 168.96630859 C76.12957015 130.9807962 71.73086655 79.74117771 52.1953125 45.87109375 C39.11075214 25.29838137 18.71775539 10.91878397 -5 5 C-12.94030642 3.32121736 -20.95816551 2.07671898 -29 1 C-29.63876068 0.91172943 -30.27752136 0.82345886 -30.93563843 0.73251343 C-43.73996761 -1.00346379 -56.40212556 -1.35854796 -69.3125 -1.3125 C-70.8791188 -1.31026428 -70.8791188 -1.31026428 -72.47738647 -1.3079834 C-107.88778949 -1.21876243 -143.20265036 1.22966666 -178.43563843 4.63282776 Z " fill="#0B0B0B" transform="translate(373,15)"/>
<path d="M0 0 C1.02222656 -0.00926514 2.04445312 -0.01853027 3.09765625 -0.02807617 C4.04898438 -0.02396729 5.0003125 -0.0198584 5.98046875 -0.015625 C6.81860107 -0.01336914 7.6567334 -0.01111328 8.52026367 -0.00878906 C11.01278073 0.27261131 12.6552998 1.00065386 14.8125 2.25 C10.15393399 2.94682687 5.49490697 3.64045987 0.83544922 4.33129883 C-0.74540649 4.56612559 -2.32613901 4.80178341 -3.90673828 5.03833008 C-15.85601495 6.82580885 -27.57972384 8.42855777 -39.6875 8.4375 C-40.56019531 8.44974609 -41.43289062 8.46199219 -42.33203125 8.47460938 C-48.49997357 8.48831591 -54.18956016 7.67137001 -60.1875 6.25 C-60.1875 5.92 -60.1875 5.59 -60.1875 5.25 C-40.16620519 2.5960948 -20.22144057 0.11447826 0 0 Z " fill="#171717" transform="translate(234.1875,272.75)"/>
<path d="M0 0 C0.66 0.33 1.32 0.66 2 1 C0.80117187 2.51013672 0.80117187 2.51013672 -0.421875 4.05078125 C-11.26104643 17.8634865 -20.53701377 32.34647367 -29.0625 47.6875 C-29.7423999 48.90723511 -29.7423999 48.90723511 -30.43603516 50.15161133 C-33.07538514 54.99309071 -35.18466017 59.79205787 -37 65 C-37.33 65 -37.66 65 -38 65 C-38.26337048 59.21227312 -37.61108215 54.72248452 -35.4375 49.3125 C-35.16719971 48.62188477 -34.89689941 47.93126953 -34.6184082 47.21972656 C-27.24055954 28.86064823 -15.41816247 12.46574838 0 0 Z " fill="#0E0E0E" transform="translate(53,25)"/>
<path d="M0 0 C9.57393887 -0.60786913 16.52128434 2.16926527 24.0234375 8.1171875 C32.80173261 16.47912079 38.90838032 28.07776784 41 40 C40.5390625 42.22265625 40.5390625 42.22265625 40 44 C39.73896484 43.51233154 39.47792969 43.02466309 39.20898438 42.5222168 C34.03638522 32.90738768 28.93832225 23.47854177 22 15 C21.46246094 14.33742188 20.92492187 13.67484375 20.37109375 12.9921875 C16.18728057 8.33454487 11.31492472 5.87556792 5.671875 3.26171875 C3 2 3 2 0 0 Z " fill="#161616" transform="translate(377,45)"/>
<path d="M0 0 C6.45914142 0.11534181 9.65582296 1.61433344 14.30078125 6.11328125 C18.65991932 10.95342766 19.32334938 14.95477501 19.10546875 21.2421875 C19.07066406 21.82226562 19.03585937 22.40234375 19 23 C16.08458466 20.28972049 14.17182757 17.75647963 12.3125 14.25 C9.49101285 9.35410327 6.10447088 6.06092744 1.7578125 2.49609375 C1.17773438 2.00238281 0.59765625 1.50867188 0 1 C0 0.67 0 0.34 0 0 Z " fill="#0E0E0E" transform="translate(382,66)"/>
<path d="M0 0 C0.66 0.33 1.32 0.66 2 1 C-3.02073166 9.60501421 -8.24407796 17.62318359 -15 25 C-15.33 25 -15.66 25 -16 25 C-15.85440158 17.28328396 -12.78318269 11.97443162 -8 6 C-5.48452501 3.71679012 -2.89103794 1.7796779 0 0 Z " fill="#161616" transform="translate(27,35)"/>
<path d="M0 0 C0.66 0.33 1.32 0.66 2 1 C-0.90753549 4.71518424 -2.7553778 6.94200136 -7 9 C-8.28016835 10.00435972 -9.53128122 11.04690261 -10.75 12.125 C-11.36359375 12.66382813 -11.9771875 13.20265625 -12.609375 13.7578125 C-13.06828125 14.16773438 -13.5271875 14.57765625 -14 15 C-12.40153531 10.75091664 -9.1869608 8.17774261 -5.875 5.25 C-5.31167969 4.74339844 -4.74835937 4.23679687 -4.16796875 3.71484375 C-2.78348469 2.47115468 -1.39238512 1.23483695 0 0 Z " fill="#2D2D2D" transform="translate(53,25)"/>
<path d="M0 0 C1.0326802 2.78823655 1.04509293 3.8677274 0.0625 6.75 C-0.288125 7.4925 -0.63875 8.235 -1 9 C-1.33 9 -1.66 9 -2 9 C-2 6.36 -2 3.72 -2 1 C-1.34 0.67 -0.68 0.34 0 0 Z " fill="#292929" transform="translate(17,81)"/>
</svg>
